<svg width="40" height="40" viewBox="0 0 40 40" fill="none" xmlns="http://www.w3.org/2000/svg">
  <rect width="40" height="40" rx="8" fill="#2EC4B6"/>
  <path d="M12 14C12 12.8954 12.8954 12 14 12H26C27.1046 12 28 12.8954 28 14V26C28 27.1046 27.1046 28 26 28H14C12.8954 28 12 27.1046 12 26V14Z" fill="white"/>
  <path d="M20 14C17.2386 14 15 16.2386 15 19C15 21.7614 17.2386 24 20 24C22.7614 24 25 21.7614 25 19C25 16.2386 22.7614 14 20 14ZM20 22C18.3431 22 17 20.6569 17 19C17 17.3431 18.3431 16 20 16C21.6569 16 23 17.3431 23 19C23 20.6569 21.6569 22 20 22Z" fill="#FF6B35"/>
  <path d="M12 19C12 19.5523 12.4477 20 13 20H15C15.5523 20 16 19.5523 16 19C16 18.4477 15.5523 18 15 18H13C12.4477 18 12 18.4477 12 19Z" fill="#FF6B35"/>
  <path d="M24 19C24 19.5523 24.4477 20 25 20H27C27.5523 20 28 19.5523 28 19C28 18.4477 27.5523 18 27 18H25C24.4477 18 24 18.4477 24 19Z" fill="#FF6B35"/>
  <path d="M20 12C19.4477 12 19 12.4477 19 13V15C19 15.5523 19.4477 16 20 16C20.5523 16 21 15.5523 21 15V13C21 12.4477 20.5523 12 20 12Z" fill="#FF6B35"/>
  <path d="M20 24C19.4477 24 19 24.4477 19 25V27C19 27.5523 19.4477 28 20 28C20.5523 28 21 27.5523 21 27V25C21 24.4477 20.5523 24 20 24Z" fill="#FF6B35"/>
</svg>